<mxGraphModel dx="870" dy="595" grid="1" gridSize="10" guides="1" tooltips="1" connect="1" arrows="1" fold="1" page="1" pageScale="1" pageWidth="850" pageHeight="1100" math="0" shadow="0">
  <root>
    <mxCell id="0" />
    <mxCell id="1" parent="0" />
    <mxCell id="3xqnEiEFkpPd1GuGywqQ-1" value="" style="shape=xor;whiteSpace=wrap;html=1;direction=west;" parent="1" vertex="1">
      <mxGeometry x="60" y="280" width="40" height="80" as="geometry" />
    </mxCell>
    <mxCell id="3xqnEiEFkpPd1GuGywqQ-6" value="" style="rounded=0;whiteSpace=wrap;html=1;direction=south;fillColor=#000000;" parent="1" vertex="1">
      <mxGeometry x="360" y="250" width="10" height="150" as="geometry" />
    </mxCell>
    <mxCell id="3xqnEiEFkpPd1GuGywqQ-7" value="" style="rounded=0;whiteSpace=wrap;html=1;direction=south;fillColor=#000000;" parent="1" vertex="1">
      <mxGeometry x="360" y="250" width="10" height="150" as="geometry" />
    </mxCell>
    <mxCell id="3xqnEiEFkpPd1GuGywqQ-8" value="" style="rounded=0;whiteSpace=wrap;html=1;direction=south;fillColor=#000000;" parent="1" vertex="1">
      <mxGeometry x="550" y="250" width="10" height="150" as="geometry" />
    </mxCell>
    <mxCell id="3xqnEiEFkpPd1GuGywqQ-11" value="" style="rounded=0;whiteSpace=wrap;html=1;direction=south;fillColor=#000000;" parent="1" vertex="1">
      <mxGeometry x="710" y="250" width="10" height="150" as="geometry" />
    </mxCell>
    <mxCell id="3xqnEiEFkpPd1GuGywqQ-12" value="" style="shape=flexArrow;endArrow=classic;html=1;fillColor=#000000;endWidth=51.724137931034484;endSize=9.144827586206898;" parent="1" edge="1">
      <mxGeometry width="50" height="50" relative="1" as="geometry">
        <mxPoint x="110" y="319.5" as="sourcePoint" />
        <mxPoint x="200" y="319" as="targetPoint" />
      </mxGeometry>
    </mxCell>
    <mxCell id="3xqnEiEFkpPd1GuGywqQ-14" value="" style="shape=flexArrow;endArrow=classic;html=1;fillColor=#000000;endWidth=25.517241379310345;endSize=7.565517241379311;" parent="1" edge="1">
      <mxGeometry width="50" height="50" relative="1" as="geometry">
        <mxPoint x="380" y="320.1" as="sourcePoint" />
        <mxPoint x="440" y="319.90000000000003" as="targetPoint" />
      </mxGeometry>
    </mxCell>
    <mxCell id="3xqnEiEFkpPd1GuGywqQ-15" value="" style="shape=flexArrow;endArrow=classic;html=1;fillColor=#000000;endWidth=25.517241379310345;endSize=7.565517241379311;" parent="1" edge="1">
      <mxGeometry width="50" height="50" relative="1" as="geometry">
        <mxPoint x="350" y="320.14" as="sourcePoint" />
        <mxPoint x="290" y="319.84999999999997" as="targetPoint" />
      </mxGeometry>
    </mxCell>
    <mxCell id="3xqnEiEFkpPd1GuGywqQ-16" value="" style="shape=flexArrow;endArrow=classic;html=1;fillColor=#000000;endWidth=11.428571428571429;endSize=3.7657142857142856;" parent="1" edge="1">
      <mxGeometry width="50" height="50" relative="1" as="geometry">
        <mxPoint x="570" y="319.76000000000005" as="sourcePoint" />
        <mxPoint x="610" y="319.85" as="targetPoint" />
      </mxGeometry>
    </mxCell>
    <mxCell id="3xqnEiEFkpPd1GuGywqQ-17" value="" style="shape=flexArrow;endArrow=classic;html=1;fillColor=#000000;endWidth=26.13953488372093;endSize=4.902325581395349;" parent="1" edge="1">
      <mxGeometry width="50" height="50" relative="1" as="geometry">
        <mxPoint x="543" y="319.76" as="sourcePoint" />
        <mxPoint x="490" y="320" as="targetPoint" />
      </mxGeometry>
    </mxCell>
    <mxCell id="3xqnEiEFkpPd1GuGywqQ-20" value="" style="shape=flexArrow;endArrow=classic;html=1;fillColor=#000000;endWidth=11.428571428571429;endSize=3.7657142857142856;" parent="1" edge="1">
      <mxGeometry width="50" height="50" relative="1" as="geometry">
        <mxPoint x="700" y="320" as="sourcePoint" />
        <mxPoint x="657.0000000000001" y="320" as="targetPoint" />
      </mxGeometry>
    </mxCell>
    <mxCell id="3xqnEiEFkpPd1GuGywqQ-21" value="&lt;div&gt;Transmitter/&lt;/div&gt;&lt;div&gt;reciever&lt;br&gt;&lt;/div&gt;" style="text;html=1;strokeColor=none;fillColor=none;align=center;verticalAlign=middle;whiteSpace=wrap;rounded=0;" parent="1" vertex="1">
      <mxGeometry x="45" y="240" width="70" height="30" as="geometry" />
    </mxCell>
    <mxCell id="3xqnEiEFkpPd1GuGywqQ-22" value="Tissue" style="text;html=1;strokeColor=none;fillColor=none;align=center;verticalAlign=middle;whiteSpace=wrap;rounded=0;" parent="1" vertex="1">
      <mxGeometry x="345" y="220" width="40" height="20" as="geometry" />
    </mxCell>
    <mxCell id="3xqnEiEFkpPd1GuGywqQ-23" value="Tissue" style="text;html=1;strokeColor=none;fillColor=none;align=center;verticalAlign=middle;whiteSpace=wrap;rounded=0;" parent="1" vertex="1">
      <mxGeometry x="535" y="220" width="40" height="20" as="geometry" />
    </mxCell>
    <mxCell id="3xqnEiEFkpPd1GuGywqQ-24" value="Tissue" style="text;html=1;strokeColor=none;fillColor=none;align=center;verticalAlign=middle;whiteSpace=wrap;rounded=0;" parent="1" vertex="1">
      <mxGeometry x="695" y="220" width="40" height="20" as="geometry" />
    </mxCell>
    <mxCell id="3xqnEiEFkpPd1GuGywqQ-25" value="Pulse" style="text;html=1;strokeColor=none;fillColor=none;align=center;verticalAlign=middle;whiteSpace=wrap;rounded=0;" parent="1" vertex="1">
      <mxGeometry x="160" y="360" width="40" height="20" as="geometry" />
    </mxCell>
    <mxCell id="3xqnEiEFkpPd1GuGywqQ-26" value="" style="shape=flexArrow;endArrow=classic;html=1;fillColor=#000000;endWidth=5.531518538549366;endSize=3.529457364341085;width=3.643410852713178;" parent="1" edge="1">
      <mxGeometry width="50" height="50" relative="1" as="geometry">
        <mxPoint x="730" y="319.76" as="sourcePoint" />
        <mxPoint x="760" y="320" as="targetPoint" />
      </mxGeometry>
    </mxCell>
  </root>
</mxGraphModel>
